<svg viewBox="0 0 200 200" xmlns="http://www.w3.org/2000/svg">
        <mask id="mask0" mask-type="alpha">
        <path d="M38.6,-51.7C52.2,-43.3,66.8,-34.9,69.3,-23.4C71.8,-11.9,62.1,2.6,56.5,17.9C50.9,33.3,49.4,49.5,40.6,54.9C31.9,60.3,15.9,54.8,2.8,50.9C-10.3,47,-20.6,44.7,-34,40.9C-47.3,37,-63.8,31.6,-68,21.4C-72.3,11.3,-64.2,-3.5,-59.6,-19.9C-54.9,-36.3,-53.7,-54.3,-44.4,-64C-35,-73.7,-17.5,-75.1,-2.5,-71.7C12.5,-68.2,25.1,-60,38.6,-51.7Z" transform="translate(100 100)" />
        </mask>
    <g mask="url(#mask0)">
        <path d="M190.312 36.4879C206.582 62.1187 201.309 102.826 182.328 134.186C163.346 
        165.547 130.807 187.559 100.226 186.353C69.6454 185.297 41.0228 161.023 21.7403 
        129.362C2.45775 97.8511 -7.48481 59.1033 6.67581 34.5279C20.9871 10.1032 59.7028 
        -0.149132 97.9666 0.00163737C136.23 0.303176 174.193 10.857 190.312 36.4879Z"/>
        <image xlink:href=""/>
    </g>
</svg>
